<?xml version="1.0" encoding="UTF-8" standalone="no"?><!-- Generator: Gravit.io --><svg xmlns="http://www.w3.org/2000/svg" xmlns:xlink="http://www.w3.org/1999/xlink" style="isolation:isolate" viewBox="0 0 512 512" width="512pt" height="512pt"><defs><clipPath id="_clipPath_dR6xzWFnqtA1v7reDbVZPFj0wRlnGq5x"><rect width="512" height="512"/></clipPath></defs><g clip-path="url(#_clipPath_dR6xzWFnqtA1v7reDbVZPFj0wRlnGq5x)"><path d=" M 64 384 L 448 384 L 448 341.333 L 64 341.333 L 64 384 Z  M 64 277.333 L 448 277.333 L 448 234.667 L 64 234.667 L 64 277.333 Z  M 64 128 L 64 170.667 L 448 170.667 L 448 128 L 64 128 Z " fill="rgb(0,0,0)"/><clipPath id="_clipPath_gTQwd3pA8J07yykTAo3GQW7nuiISAMlu"><path d=" M 64 384 L 448 384 L 448 341.333 L 64 341.333 L 64 384 Z  M 64 277.333 L 448 277.333 L 448 234.667 L 64 234.667 L 64 277.333 Z  M 64 128 L 64 170.667 L 448 170.667 L 448 128 L 64 128 Z " fill="rgb(0,0,0)"/></clipPath><g clip-path="url(#_clipPath_gTQwd3pA8J07yykTAo3GQW7nuiISAMlu)"><rect x="0" y="0" width="512" height="256" transform="matrix(1,0,0,1,0,0)" fill="rgb(255,0,174)"/></g></g></svg>