<?xml version="1.0" encoding="UTF-8" standalone="no"?><!-- Generator: Gravit.io --><svg xmlns="http://www.w3.org/2000/svg" xmlns:xlink="http://www.w3.org/1999/xlink" style="isolation:isolate" viewBox="0 0 100 100" width="100pt" height="100pt"><defs><clipPath id="_clipPath_xBO1A2VwqWDITl8krTc1JPcfBax7Ch6X"><rect width="100" height="100"/></clipPath></defs><g clip-path="url(#_clipPath_xBO1A2VwqWDITl8krTc1JPcfBax7Ch6X)"><path d=" M 0 50 C 0 22.404 22.404 0 50 0 C 77.596 0 100 22.404 100 50 C 100 77.596 77.596 100 50 100 C 22.404 100 0 77.596 0 50 Z  M 4.167 50 C 4.167 24.704 24.704 4.167 50 4.167 C 75.296 4.167 95.833 24.704 95.833 50 C 95.833 75.296 75.296 95.833 50 95.833 C 24.704 95.833 4.167 75.296 4.167 50 Z " fill-rule="evenodd" fill="rgb(255,255,255)"/><path d=" M 52.083 70.117 L 67.763 50.917 L 70.833 53.746 L 50 79.167 L 29.167 53.7 L 32.304 50.925 L 47.917 70.108 L 47.917 20.833 L 52.083 20.833 L 52.083 70.117 L 52.083 70.117 Z " fill="rgb(255,255,255)"/></g></svg>