<?xml version="1.0" encoding="UTF-8" standalone="no"?><!-- Generator: Gravit.io --><svg xmlns="http://www.w3.org/2000/svg" xmlns:xlink="http://www.w3.org/1999/xlink" style="isolation:isolate" viewBox="0 0 512 512" width="512pt" height="512pt"><defs><clipPath id="_clipPath_zldZyljQdSUVmYXSULOH0GvISb16WH2b"><rect width="512" height="512"/></clipPath></defs><g clip-path="url(#_clipPath_zldZyljQdSUVmYXSULOH0GvISb16WH2b)"><path d=" M 256 286.17 L 135.321 406.85 L 105.15 376.679 L 225.83 256 L 105.15 135.321 L 135.321 105.15 L 256 225.83 L 376.679 105.15 L 406.85 135.321 L 286.17 256 L 406.85 376.679 L 376.679 406.85 L 256 286.17 Z " fill="rgb(0,0,0)"/><clipPath id="_clipPath_4Z9VRFmK285KlXDM9VvPxMSq46xJZq1b"><path d=" M 256 286.17 L 135.321 406.85 L 105.15 376.679 L 225.83 256 L 105.15 135.321 L 135.321 105.15 L 256 225.83 L 376.679 105.15 L 406.85 135.321 L 286.17 256 L 406.85 376.679 L 376.679 406.85 L 256 286.17 Z " fill="rgb(0,0,0)"/></clipPath><g clip-path="url(#_clipPath_4Z9VRFmK285KlXDM9VvPxMSq46xJZq1b)"><rect x="0" y="0" width="512" height="256" transform="matrix(1,0,0,1,0,0)" fill="rgb(255,0,174)"/></g></g></svg>