<?xml version="1.0" encoding="UTF-8" standalone="no"?><!-- Generator: Gravit.io --><svg xmlns="http://www.w3.org/2000/svg" xmlns:xlink="http://www.w3.org/1999/xlink" style="isolation:isolate" viewBox="0 0 512 512" width="512pt" height="512pt"><defs><clipPath id="_clipPath_xzQ7l2el41DTRpJ46vvc7zcvvdnUoogi"><rect width="512" height="512"/></clipPath></defs><g clip-path="url(#_clipPath_xzQ7l2el41DTRpJ46vvc7zcvvdnUoogi)"><rect width="512" height="512" style="fill:rgb(52,49,49)" fill-opacity="0"/><g style="opacity:0.2;"><path d=" M 385.13 99.88 Q 380.592 80.176 369.673 62.935 L 369.673 62.935 L 369.673 62.935 Q 350.989 33.434 319.194 16.717 L 319.194 16.717 L 319.194 16.717 Q 287.399 0 248.064 0 L 248.064 0 L 248.064 0 L 88.761 0 L 88.761 0 Q 77.616 0 70.405 7.211 L 70.405 7.211 L 70.405 7.211 Q 63.194 14.423 63.194 25.567 L 63.194 25.567 L 63.194 421.816 L 114.328 370.681 L 114.328 262.884 L 222.126 262.884 L 274.01 210.999 Q 261.923 213.716 248.064 213.716 L 248.064 213.716 L 248.064 213.716 L 114.328 213.716 L 114.328 49.168 L 248.064 49.168 L 248.064 49.168 Q 288.71 49.168 313.621 70.146 L 313.621 70.146 L 313.621 70.146 Q 338.533 91.124 338.533 129.147 L 338.533 129.147 L 338.533 129.147 Q 338.533 139.175 336.893 148.117 L 385.13 99.88 Z " fill="#49ce65"/><path d=" M 419.621 119.37 Q 419.961 124.193 419.961 129.147 L 419.961 129.147 L 419.961 129.147 Q 419.961 163.892 401.277 191.426 L 401.277 191.426 L 401.277 191.426 Q 382.594 218.96 351.126 234.038 L 351.126 234.038 L 351.126 234.038 Q 396.361 246.494 422.583 278.945 L 422.583 278.945 L 422.583 278.945 Q 448.806 311.396 448.806 360.563 L 448.806 360.563 L 448.806 360.563 Q 448.806 404.487 428.484 438.904 L 428.484 438.904 L 428.484 438.904 Q 408.161 473.321 372.432 492.661 L 372.432 492.661 L 372.432 492.661 Q 336.704 512 290.814 512 L 290.814 512 L 123.644 512 L 123.644 512 Q 110.532 512 102.665 505.117 L 102.665 505.117 L 102.665 505.117 Q 94.799 498.233 94.799 486.433 L 94.799 486.433 L 94.799 444.192 L 145.933 393.058 L 145.933 462.832 L 290.814 462.832 L 290.814 462.832 L 290.814 462.832 Q 338.671 462.832 368.499 434.971 L 368.499 434.971 L 368.499 434.971 Q 398.327 407.109 398.327 360.563 L 398.327 360.563 L 398.327 360.563 Q 398.327 315.985 368.499 289.434 L 368.499 289.434 L 368.499 289.434 Q 338.671 262.884 290.814 262.884 L 290.814 262.884 L 276.107 262.884 L 419.621 119.37 Z " fill="#49ce65"/></g><g><path d=" M 400.932 99.88 Q 396.394 80.176 385.475 62.935 L 385.475 62.935 L 385.475 62.935 Q 366.791 33.434 334.996 16.717 L 334.996 16.717 L 334.996 16.717 Q 303.201 0 263.867 0 L 263.867 0 L 263.867 0 L 104.563 0 L 104.563 0 Q 93.419 0 86.207 7.211 L 86.207 7.211 L 86.207 7.211 Q 78.996 14.423 78.996 25.567 L 78.996 25.567 L 78.996 421.816 L 130.131 370.681 L 130.131 262.884 L 237.928 262.884 L 289.812 210.999 Q 277.725 213.716 263.867 213.716 L 263.867 213.716 L 263.867 213.716 L 130.131 213.716 L 130.131 49.168 L 263.867 49.168 L 263.867 49.168 Q 304.512 49.168 329.424 70.146 L 329.424 70.146 L 329.424 70.146 Q 354.335 91.124 354.335 129.147 L 354.335 129.147 L 354.335 129.147 Q 354.335 139.175 352.695 148.117 L 400.932 99.88 Z " fill="#49ce65"/><path d=" M 403.819 119.37 Q 404.159 124.193 404.159 129.147 L 404.159 129.147 L 404.159 129.147 Q 404.159 163.892 385.475 191.426 L 385.475 191.426 L 385.475 191.426 Q 366.791 218.96 335.324 234.038 L 335.324 234.038 L 335.324 234.038 Q 380.558 246.494 406.781 278.945 L 406.781 278.945 L 406.781 278.945 Q 433.004 311.396 433.004 360.563 L 433.004 360.563 L 433.004 360.563 Q 433.004 404.487 412.681 438.904 L 412.681 438.904 L 412.681 438.904 Q 392.359 473.321 356.63 492.661 L 356.63 492.661 L 356.63 492.661 Q 320.901 512 275.011 512 L 275.011 512 L 107.841 512 L 107.841 512 Q 94.73 512 86.863 505.117 L 86.863 505.117 L 86.863 505.117 Q 78.996 498.233 78.996 486.433 L 78.996 486.433 L 78.996 444.192 L 130.131 393.058 L 130.131 462.832 L 275.011 462.832 L 275.011 462.832 L 275.011 462.832 Q 322.868 462.832 352.696 434.971 L 352.696 434.971 L 352.696 434.971 Q 382.525 407.109 382.525 360.563 L 382.525 360.563 L 382.525 360.563 Q 382.525 315.985 352.696 289.434 L 352.696 289.434 L 352.696 289.434 Q 322.868 262.884 275.011 262.884 L 275.011 262.884 L 260.305 262.884 L 403.819 119.37 Z " fill="#49ce65"/></g></g></svg>